<?xml version="1.0" encoding="utf-8"?>
<!-- Generator: Adobe Illustrator 22.1.0, SVG Export Plug-In . SVG Version: 6.00 Build 0)  -->
<svg version="1.1" id="Capa_1" xmlns="http://www.w3.org/2000/svg" xmlns:xlink="http://www.w3.org/1999/xlink" x="0px" y="0px"
	 viewBox="0 0 67 67" style="enable-background:new 0 0 67 67;" xml:space="preserve">
<style type="text/css">
	.st0{fill:#9F87BB;}
</style>
<g>
	<g>
		<g>
			<polygon class="st0" points="41.4,29.5 44.6,31.3 50.8,27.7 41.4,22.1 			"/>
			<path class="st0" d="M60.5,18.1l2.2-4c1.8-3.1-3.4-6.7-5.8-8.1c-2.5-1.3-8.1-4.3-9.9-0.9l-3.1,5.4c-3.1-0.7-6.7-1.1-10.3-1.1
				C15,9.3,0,19.4,0,31.7C0,44,15,54.1,33.6,54.1c0,0,0,0,0.2,0c0.2,2.7-2.9,7.2-7.4,9.4c17.7,0,25.8-13.2,25.8-13.2
				c9-4,14.8-10.8,14.8-18.6C67.4,26.6,64.7,21.9,60.5,18.1z M15.5,38c-1.8,0-3.1-1.3-3.1-3.1s1.3-3.1,3.1-3.1s3.1,1.3,3.1,3.1
				S17,38,15.5,38z M23.7,38c-1.8,0-3.1-1.3-3.1-3.1s1.3-3.1,3.1-3.1s3.1,1.3,3.1,3.1S25.5,38,23.7,38z M32,38
				c-1.8,0-3.1-1.3-3.1-3.1s1.3-3.1,3.1-3.1c1.8,0,3.1,1.3,3.1,3.1C35.2,36.6,33.8,38,32,38z M52,28.4l-6.5,3.6l-5.4,2.9v-6v-7.4
				l9-15.5c0.4-0.9,3.6,0,6.9,1.8s5.6,4,4.9,4.9L52,28.4z"/>
		</g>
	</g>
</g>
<path class="st0" d="M255,24.9c0,0-3.2-144.3-94.7-87.3C160.4-62.7,229-77.5,255,24.9z"/>
<path class="st0" d="M269.8,24.9c0,0,3.2-144.3,94.7-87.3C364.5-62.7,295.5-77.5,269.8,24.9z"/>
<path class="st0" d="M274.1,57.3c0,0-36.6,129.2,108,203.4c0,0,77.1-100.3-47.9-150.3c0,0,159.1,47.9,117.9-77.1
	C405.7-106.7,274.1,57.3,274.1,57.3z"/>
</svg>
