<?xml version="1.0" encoding="utf-8"?>
<!-- Generator: Adobe Illustrator 22.1.0, SVG Export Plug-In . SVG Version: 6.00 Build 0)  -->
<svg version="1.1" id="Camada_1" xmlns="http://www.w3.org/2000/svg" xmlns:xlink="http://www.w3.org/1999/xlink" x="0px" y="0px"
	 viewBox="0 0 60 60" style="enable-background:new 0 0 60 60;" xml:space="preserve">
<style type="text/css">
	.st0{fill:#FFFFFF;}
	.st1{fill:#9F87BB;}
</style>
<g>
	<path class="st0" d="M9,15.7H51c2.9,0,5.3-2.4,5.3-5.3S54,5.1,51,5.1H9c-2.9,0.1-5.2,2.4-5.2,5.3S6.1,15.7,9,15.7L9,15.7z"/>
	<path class="st0" d="M51.1,26.2H9c-2.9,0-5.3,2.4-5.3,5.3s2.4,5.3,5.3,5.3H51c2.9,0,5.3-2.4,5.3-5.3S54,26.2,51.1,26.2L51.1,26.2z"
		/>
	<path class="st0" d="M51.1,47.3H9c-2.9,0-5.3,2.4-5.3,5.3c0,2.9,2.4,5.3,5.3,5.3H51c2.9,0,5.3-2.4,5.3-5.3S54,47.3,51.1,47.3
		L51.1,47.3z"/>
</g>
<g>
	<path class="st1" d="M9,12.7H51c2.9,0,5.3-2.4,5.3-5.3S54,2.1,51,2.1H9C6.1,2.2,3.8,4.5,3.8,7.4S6.1,12.7,9,12.7L9,12.7z"/>
	<path class="st1" d="M51.1,23.2H9c-2.9,0-5.3,2.4-5.3,5.3s2.4,5.3,5.3,5.3H51c2.9,0,5.3-2.4,5.3-5.3S54,23.2,51.1,23.2L51.1,23.2z"
		/>
	<path class="st1" d="M51.1,44.3H9c-2.9,0-5.3,2.4-5.3,5.3c0,2.9,2.4,5.3,5.3,5.3H51c2.9,0,5.3-2.4,5.3-5.3S54,44.3,51.1,44.3
		L51.1,44.3z"/>
</g>
</svg>
