<?xml version="1.0" encoding="utf-8"?>
<!-- Generator: Adobe Illustrator 22.0.1, SVG Export Plug-In . SVG Version: 6.00 Build 0)  -->
<svg version="1.1" id="Camada_1" xmlns="http://www.w3.org/2000/svg" xmlns:xlink="http://www.w3.org/1999/xlink" x="0px" y="0px"
	 viewBox="0 0 50 50" style="enable-background:new 0 0 50 50;" xml:space="preserve">
<style type="text/css">
	.st0{fill:url(#SVGID_1_);}
	.st1{fill-rule:evenodd;clip-rule:evenodd;fill:#FFFFFF;}
</style>
<g>
	<linearGradient id="SVGID_1_" gradientUnits="userSpaceOnUse" x1="25.2019" y1="-27.4643" x2="25.2019" y2="54.7562">
		<stop  offset="0.3172" style="stop-color:#5D9DD2"/>
		<stop  offset="0.672" style="stop-color:#4B7DB3"/>
	</linearGradient>
	<path class="st0" d="M50.2,25c0,13.8-11.2,25-25,25c-13.8,0-25-11.2-25-25c0-13.8,11.2-25,25-25C39,0,50.2,11.2,50.2,25z"/>
	<g>
		<g>
			<path class="st1" d="M10.1,35.2c2.4,0.2,4.7-0.2,6.9-1.2c1-0.4,1.9-1,2.7-1.6c-1,0-2-0.3-2.8-0.7c-1.5-0.7-2.5-1.9-3.1-3.5
				c-0.1-0.3-0.1-0.3,0.2-0.3c1,0.1,1.8,0.1,2.4-0.2c-0.6-0.2-1.1-0.3-1.5-0.6c-2.2-1.2-3.4-3.1-3.6-5.6c0-0.3,0.1-0.3,0.3-0.2
				c0.8,0.4,1.6,0.6,2.6,0.7c-0.4-0.4-0.8-0.7-1.1-1c-1.8-2-2.2-5.1-1-7.5c0.2-0.3,0.2-0.3,0.4-0.1c3.1,3.5,6.9,5.7,11.5,6.4
				c0.5,0.1,1,0.1,1.5,0.2c0.3,0,0.4-0.1,0.3-0.3c-0.5-2.8,0.8-5.5,3.3-6.9c2.5-1.5,5.7-1,7.7,1c0.2,0.2,0.5,0.2,0.7,0.2
				c1.2-0.3,2.4-0.7,3.5-1.4c0.1,0,0.2-0.1,0.3-0.2c-0.5,1.5-1.4,2.7-2.8,3.6c1.3-0.1,2.4-0.5,3.5-0.9c0,0.2-0.1,0.3-0.2,0.4
				c-0.8,1.1-1.7,2-2.7,2.8c-0.2,0.2-0.2,0.3-0.2,0.5c0.1,4.8-1.5,9.1-4.5,12.8c-2.9,3.4-6.6,5.4-11,6.2c-4.7,0.7-9-0.1-13.1-2.5
				C10.2,35.2,10.1,35.2,10.1,35.2z"/>
		</g>
	</g>
</g>
</svg>
