<?xml version="1.0" encoding="utf-8"?>
<!-- Generator: Adobe Illustrator 22.1.0, SVG Export Plug-In . SVG Version: 6.00 Build 0)  -->
<svg version="1.1" xmlns="http://www.w3.org/2000/svg" xmlns:xlink="http://www.w3.org/1999/xlink" x="0px" y="0px"
	 viewBox="0 0 800 800" style="enable-background:new 0 0 800 800;" xml:space="preserve">
<style type="text/css">
	.st0{fill:#7FAF4F;}
	.st1{fill:#334D5D;}
	.st2{fill:#637780;}
</style>
<g id="Background">
</g>
<g id="Objects">
	<path class="st0" d="M348.2,356.2l3.3,89.3l3.3-89.3C354.8,356.2,349.6,358.8,348.2,356.2z"/>
	<polygon class="st0" points="350.9,295.2 352.1,295.1 353.4,267.2 349.6,267.2 	"/>
	<path class="st1" d="M351.5,299.2c-14.6,0-26.5,11.9-26.5,26.5c0,14.6,11.9,26.4,26.5,26.4c14.6,0,26.4-11.8,26.4-26.4
		C378,311.1,366.2,299.2,351.5,299.2L351.5,299.2z M351.5,347.4c-11.9,0-21.6-9.7-21.6-21.6c0-11.9,9.7-21.6,21.6-21.6
		c11.9,0,21.6,9.7,21.6,21.6C373.2,337.7,363.5,347.4,351.5,347.4L351.5,347.4z M351.5,347.4"/>
	<g>
		<path class="st2" d="M351.5,356.4c-16.9,0-30.6-13.7-30.6-30.6c0-16.9,13.7-30.6,30.6-30.6v-28c-32.5,0-59,26.5-59,59
			c0,13.1,8.4,34.4,25.6,65.3c12.2,21.8,24.1,40,24.6,40.7l8.8,13.3V356.4z"/>
		<path class="st1" d="M351.5,356.4c16.9,0,30.6-13.7,30.6-30.6c0-16.9-13.7-30.6-30.6-30.6v-28c32.5,0,59,26.5,59,59
			c0,13.1-8.4,34.4-25.6,65.3c-12.2,21.8-24.1,40-24.6,40.7l-8.8,13.3V356.4z"/>
	</g>
</g>
</svg>
