<?xml version="1.0" encoding="utf-8"?>
<!-- Generator: Adobe Illustrator 22.1.0, SVG Export Plug-In . SVG Version: 6.00 Build 0)  -->
<svg version="1.1" id="Camada_1" xmlns="http://www.w3.org/2000/svg" xmlns:xlink="http://www.w3.org/1999/xlink" x="0px" y="0px"
	 viewBox="0 0 400 400" style="enable-background:new 0 0 400 400;" xml:space="preserve">
<style type="text/css">
	.st0{fill:#FFFFFF;}
	.st1{fill-rule:evenodd;clip-rule:evenodd;fill:#FFFFFF;}
</style>
<path class="st0" d="M207.2,46.9c92.6,0,167.6,72.5,167.6,161.8c0,89.4-75,161.8-167.6,161.8c-92.5,0-167.5-72.4-167.5-161.8
	C39.7,119.5,114.7,46.9,207.2,46.9 M207.2,38.7C110,38.7,31.1,115,31.1,208.8c0,93.8,79,170.1,176.1,170.1
	c97.2,0,176.2-76.3,176.2-170.1C383.3,115,304.3,38.7,207.2,38.7L207.2,38.7z"/>
<path class="st1" d="M273.9,121.4c-44.4,0-88.9,0-133.2,0c-15.9,0-24.1,8.1-24.1,23.4c0,21.3,0,42.5,0,63.9c0,21.3,0,43.1,0,64.5
	c0,14.8,8.4,22.8,23.3,22.8c44.8,0,89.3,0,134,0c15.5,0,24-8.1,24-23c0-43.1,0-85.7,0-128.8C297.8,129.6,289.3,121.4,273.9,121.4z
	 M259.2,141.3c18,0,18,0,18,17.3c0,16.9,0,16.9-17.6,16.9c-17.8,0-17.8,0-17.8-17.2C241.7,141.3,241.7,141.3,259.2,141.3z
	 M207.3,174.8c18.9,0,35.1,15.8,34.8,33.9c-0.2,18.7-16.2,34.1-35.4,33.8c-19.1-0.3-35.1-15.9-34.7-34.1
	C172.5,190.1,188.4,174.8,207.3,174.8z M277.1,265.9c-0.2,8.1-2.3,10.4-10.8,10.4c-19.8,0-39.5,0-59.3,0c-19.6,0-39.4,0-59.1,0
	c-8.3,0-10.6-2.3-10.6-10.4c0-21.1,0.1-42.5-0.3-63.8c0-6,1.7-7.3,7.5-7.2c8.3,0.7,8.4,0.3,7.5,8.1c-3.2,26.9,16.2,53.2,43.7,58.4
	c28.4,5.2,56.9-11.2,64.7-37.5c2.3-8.2,3-17,1.3-25.1c-0.6-3.1,0.2-3.6,3-3.6c12.5-1,12.5-1.1,12.5,11.4
	C277.1,226.1,277.1,246.1,277.1,265.9z"/>
</svg>
