<?xml version="1.0" encoding="utf-8"?>
<!-- Generator: Adobe Illustrator 22.1.0, SVG Export Plug-In . SVG Version: 6.00 Build 0)  -->
<svg version="1.1" id="Camada_1" xmlns="http://www.w3.org/2000/svg" xmlns:xlink="http://www.w3.org/1999/xlink" x="0px" y="0px"
	 viewBox="0 0 400 400" style="enable-background:new 0 0 400 400;" xml:space="preserve">
<style type="text/css">
	.st0{fill:#9F87BB;}
	.st1{fill:#FFFFFF;}
</style>
<g>
	<g>
		<path class="st0" d="M168,111.9c0,0,8.3,27.8-24.5,43.8c0,0-17.5-21.6,10.8-32.3c0,0-36.1,10.3-26.7-16.6
			C138.1,76.6,168,111.9,168,111.9z"/>
		<path class="st0" d="M169,104.9c0,0-0.8-31-21.4-18.8C147.5,86.1,163.1,82.9,169,104.9z"/>
		<path class="st0" d="M172.3,104.9c0,0,0.8-31,21.4-18.8C193.8,86.1,178.2,82.9,172.3,104.9z"/>
		<path class="st0" d="M173.3,111.9c0,0-8.3,27.8,24.5,43.8c0,0,17.5-21.6-10.8-32.3c0,0,36.1,10.3,26.7-16.6
			C203.2,76.6,173.3,111.9,173.3,111.9z"/>
	</g>
	<g>
		<g>
			<polygon class="st1" points="228.6,109.7 365,112.9 228.6,116.1 			"/>
		</g>
		<g>
			<polygon class="st1" points="50.6,112.9 113.1,109.7 113.1,116.1 			"/>
		</g>
	</g>
	<g>
		<g>
			<path class="st1" d="M66,154c0-1.2,0.9-2,2-2c1.2,0,2,0.8,2,2c0,1.2-0.8,2-2,2C66.8,156,66,155.1,66,154z"/>
			<path class="st1" d="M80.7,133.9h3v10.5h0.1c0.6-0.8,1.2-1.6,1.8-2.3l7-8.2h3.7l-8.3,9.2l9,12.5h-3.5L85.8,145l-2.2,2.4v8.3h-3
				V133.9z"/>
			<path class="st1" d="M108.9,133.9v21.8h-3v-21.8H108.9z"/>
			<path class="st1" d="M120.1,154c0-1.2,0.9-2,2-2c1.2,0,2,0.8,2,2c0,1.2-0.8,2-2,2C120.9,156,120.1,155.1,120.1,154z"/>
		</g>
	</g>
	<g>
		<g>
			<path class="st1" d="M217.5,134.2c1.3-0.3,3.3-0.5,5.4-0.5c3,0,4.9,0.5,6.3,1.6c1.2,0.8,1.9,2.1,1.9,3.8c0,2.1-1.5,3.9-3.9,4.8
				v0.1c2.2,0.5,4.7,2.2,4.7,5.5c0,1.9-0.8,3.3-1.9,4.4c-1.6,1.4-4.2,2-7.9,2c-2,0-3.6-0.1-4.6-0.3V134.2z M220.5,143.1h2.7
				c3.1,0,5-1.6,5-3.7c0-2.6-2-3.6-5-3.6c-1.4,0-2.1,0.1-2.6,0.2V143.1z M220.5,153.5c0.6,0.1,1.4,0.1,2.5,0.1
				c3.1,0,5.9-1.1,5.9-4.2c0-3-2.7-4.2-5.9-4.2h-2.5V153.5z"/>
			<path class="st1" d="M254.7,145.5h-8.9v7.9h10v2.4h-12.9v-21.8h12.4v2.4h-9.4v6.9h8.9V145.5z"/>
			<path class="st1" d="M266.4,133.9h3v19.4h9.8v2.4h-12.8V133.9z"/>
			<path class="st1" d="M301.2,145.5h-8.9v7.9h10v2.4h-12.9v-21.8h12.4v2.4h-9.4v6.9h8.9V145.5z"/>
			<path class="st1" d="M311.4,154l12.8-17.7v-0.1h-11.7v-2.4H328v1.7l-12.7,17.6v0.1h12.9v2.4h-16.8V154z"/>
			<path class="st1" d="M342.3,148.8l-2.4,6.9h-3.1l7.8-21.8h3.6l7.8,21.8h-3.2l-2.5-6.9H342.3z M349.9,146.6l-2.2-6.3
				c-0.5-1.4-0.9-2.7-1.2-4h-0.1c-0.3,1.3-0.7,2.6-1.2,3.9l-2.3,6.3H349.9z"/>
		</g>
	</g>
	<g>
		<path class="st1" d="M56.9,172.8c24.6-1.3,49.2-2,73.8-2.5c12.3-0.3,24.6-0.4,36.9-0.5l36.9-0.2l36.9,0.2
			c12.3,0.2,24.6,0.2,36.9,0.5c24.6,0.5,49.2,1.2,73.8,2.5c-24.6,1.3-49.2,2-73.8,2.5c-12.3,0.3-24.6,0.4-36.9,0.5l-36.9,0.2
			l-36.9-0.2c-12.3-0.2-24.6-0.2-36.9-0.5C106.1,174.8,81.5,174.1,56.9,172.8z"/>
	</g>
</g>
</svg>
