<?xml version="1.0" encoding="utf-8"?>
<!-- Generator: Adobe Illustrator 22.1.0, SVG Export Plug-In . SVG Version: 6.00 Build 0)  -->
<svg version="1.1" id="Camada_1" xmlns="http://www.w3.org/2000/svg" xmlns:xlink="http://www.w3.org/1999/xlink" x="0px" y="0px"
	 viewBox="0 0 400 139" style="enable-background:new 0 0 400 139;" xml:space="preserve">
<style type="text/css">
	.st0{fill:#9F87BB;}
	.st1{fill:#FFFFFF;}
</style>
<g>
	<path class="st0" d="M150.2,47.7c0,0,10.4,36.7-30.7,57.8c0,0-21.9-28.5,13.6-42.7c0,0-45.2,13.6-33.5-21.9
		C112.7,1.1,150.2,47.7,150.2,47.7z"/>
	<path class="st0" d="M151.4,38.5c0,0-0.9-41-26.9-24.8C124.5,13.6,144,9.4,151.4,38.5z"/>
	<path class="st0" d="M155.6,38.5c0,0,0.9-41,26.9-24.8C182.5,13.6,162.9,9.4,155.6,38.5z"/>
	<path class="st0" d="M156.8,47.7c0,0-10.4,36.7,30.7,57.8c0,0,21.9-28.5-13.6-42.7c0,0,45.2,13.6,33.5-21.9
		C194.2,1.1,156.8,47.7,156.8,47.7z"/>
	<g>
		<polygon class="st1" points="226.1,46.4 397,49 226.1,51.7 		"/>
	</g>
	<g>
		<polygon class="st1" points="3,49 81.4,46.4 81.4,51.7 		"/>
	</g>
	<path class="st1" d="M22.3,103.3c0-1.6,1.1-2.7,2.6-2.7c1.5,0,2.5,1.1,2.5,2.7c0,1.5-1,2.7-2.6,2.7C23.3,106,22.3,104.9,22.3,103.3
		z"/>
	<path class="st1" d="M40.7,76.8h3.7v13.9h0.1c0.8-1.1,1.5-2.1,2.3-3.1l8.8-10.8h4.6L49.8,89L61,105.6h-4.4l-9.5-14.1l-2.7,3.2v11
		h-3.7V76.8z"/>
	<path class="st1" d="M76.1,76.8v28.8h-3.7V76.8H76.1z"/>
	<path class="st1" d="M90.1,103.3c0-1.6,1.1-2.7,2.6-2.7c1.5,0,2.5,1.1,2.5,2.7c0,1.5-1,2.7-2.6,2.7C91.2,106,90.1,104.9,90.1,103.3
		z"/>
	<path class="st1" d="M212.2,77.1c1.6-0.3,4.2-0.6,6.8-0.6c3.7,0,6.1,0.6,7.9,2.1c1.5,1.1,2.4,2.8,2.4,5.1c0,2.8-1.8,5.2-4.9,6.3
		v0.1c2.7,0.7,5.9,2.9,5.9,7.2c0,2.5-1,4.4-2.4,5.8c-2,1.8-5.3,2.7-10,2.7c-2.6,0-4.5-0.2-5.8-0.3V77.1z M215.9,88.9h3.4
		c3.9,0,6.2-2.1,6.2-4.8c0-3.4-2.6-4.7-6.3-4.7c-1.7,0-2.7,0.1-3.3,0.3V88.9z M215.9,102.7c0.7,0.1,1.8,0.2,3.1,0.2
		c3.8,0,7.4-1.4,7.4-5.6c0-3.9-3.4-5.6-7.4-5.6h-3.1V102.7z"/>
	<path class="st1" d="M258.8,92.1h-11.2v10.4h12.5v3.1h-16.2V76.8h15.5v3.1h-11.8V89h11.2V92.1z"/>
	<path class="st1" d="M273.5,76.8h3.7v25.7h12.3v3.1h-16V76.8z"/>
	<path class="st1" d="M317.1,92.1h-11.2v10.4h12.5v3.1h-16.2V76.8h15.5v3.1h-11.8V89h11.2V92.1z"/>
	<path class="st1" d="M329.8,103.4l16-23.4v-0.1h-14.6v-3.1h19.4V79l-15.9,23.3v0.1h16.1v3.1h-21V103.4z"/>
	<path class="st1" d="M368.6,96.5l-3,9.1h-3.8l9.8-28.8h4.5l9.8,28.8h-4l-3.1-9.1H368.6z M378,93.6l-2.8-8.3
		c-0.6-1.9-1.1-3.6-1.5-5.3h-0.1c-0.4,1.7-0.9,3.5-1.5,5.2l-2.8,8.3H378z"/>
	<g>
		<path class="st1" d="M11,128.1c30.8-1.1,61.7-1.7,92.5-2.1c15.4-0.2,30.8-0.3,46.3-0.4l46.3-0.1l46.3,0.1
			c15.4,0.1,30.8,0.2,46.3,0.4c30.8,0.4,61.7,1,92.5,2.1c-30.8,1.1-61.7,1.7-92.5,2.1c-15.4,0.2-30.8,0.3-46.3,0.4l-46.3,0.1
			l-46.3-0.1c-15.4-0.1-30.8-0.2-46.3-0.4C72.6,129.8,41.8,129.2,11,128.1z"/>
	</g>
</g>
</svg>
