<?xml version="1.0" encoding="utf-8"?>
<!-- Generator: Adobe Illustrator 22.1.0, SVG Export Plug-In . SVG Version: 6.00 Build 0)  -->
<svg version="1.1" id="Camada_1" xmlns="http://www.w3.org/2000/svg" xmlns:xlink="http://www.w3.org/1999/xlink" x="0px" y="0px"
	 viewBox="0 0 490 153" style="enable-background:new 0 0 490 153;" xml:space="preserve">
<style type="text/css">
	.st0{fill:#9F87BB;}
	.st1{fill:#FFFFFF;}
</style>
<g>
	<g>
		<path class="st0" d="M184.8,48c0,0,12.5,44.3-37.1,69.8c0,0-26.4-34.4,16.4-51.5c0,0-54.6,16.4-40.5-26.5
			C139.6-8.4,184.8,48,184.8,48z"/>
		<path class="st0" d="M186.3,36.8c0,0-1.1-49.5-32.5-30C153.8,6.8,177.4,1.7,186.3,36.8z"/>
		<path class="st0" d="M191.4,36.8c0,0,1.1-49.5,32.5-30C223.8,6.8,200.2,1.7,191.4,36.8z"/>
		<path class="st0" d="M192.8,48c0,0-12.5,44.3,37.1,69.8c0,0,26.4-34.4-16.4-51.5c0,0,54.6,16.4,40.5-26.5
			C238.1-8.4,192.8,48,192.8,48z"/>
	</g>
	<g>
		<g>
			<polygon class="st1" points="276.6,46.3 482.9,49.6 276.6,52.8 			"/>
		</g>
		<g>
			<polygon class="st1" points="7.1,49.6 101.8,46.3 101.8,52.8 			"/>
		</g>
	</g>
	<g>
		<g>
			<path class="st1" d="M30.4,115.1c0-1.9,1.3-3.3,3.1-3.3c1.8,0,3,1.3,3,3.3c0,1.9-1.2,3.3-3.1,3.3C31.6,118.4,30.4,117,30.4,115.1
				z"/>
			<path class="st1" d="M52.6,83h4.5v16.8h0.2c0.9-1.3,1.9-2.6,2.7-3.7L70.6,83h5.6L63.6,97.8l13.6,20h-5.3l-11.5-17.1l-3.3,3.8
				v13.3h-4.5V83z"/>
			<path class="st1" d="M95.4,83v34.8h-4.5V83H95.4z"/>
			<path class="st1" d="M112.3,115.1c0-1.9,1.3-3.3,3.1-3.3c1.8,0,3,1.3,3,3.3c0,1.9-1.2,3.3-3.1,3.3
				C113.6,118.4,112.3,117,112.3,115.1z"/>
		</g>
	</g>
	<g>
		<g>
			<path class="st1" d="M259.8,83.5c2-0.4,5.1-0.7,8.2-0.7c4.5,0,7.4,0.8,9.5,2.5c1.8,1.3,2.9,3.4,2.9,6.1c0,3.4-2.2,6.3-5.9,7.6
				v0.1c3.3,0.8,7.2,3.6,7.2,8.7c0,3-1.2,5.3-2.9,7c-2.4,2.2-6.3,3.3-12,3.3c-3.1,0-5.5-0.2-7-0.4V83.5z M264.3,97.7h4.1
				c4.7,0,7.5-2.5,7.5-5.8c0-4.1-3.1-5.7-7.6-5.7c-2.1,0-3.3,0.2-4,0.3V97.7z M264.3,114.4c0.9,0.2,2.2,0.2,3.8,0.2
				c4.6,0,8.9-1.7,8.9-6.8c0-4.7-4.1-6.7-9-6.7h-3.7V114.4z"/>
			<path class="st1" d="M316.1,101.5h-13.5V114h15.1v3.8h-19.6V83h18.8v3.8h-14.3v11h13.5V101.5z"/>
			<path class="st1" d="M333.8,83h4.5v31h14.9v3.8h-19.3V83z"/>
			<path class="st1" d="M386.4,101.5h-13.5V114H388v3.8h-19.6V83h18.8v3.8h-14.3v11h13.5V101.5z"/>
			<path class="st1" d="M401.8,115.2L421.1,87v-0.2h-17.6V83h23.5v2.7l-19.2,28.1v0.2h19.4v3.8h-25.4V115.2z"/>
			<path class="st1" d="M448.6,106.9l-3.6,10.9h-4.6L452.2,83h5.4l11.9,34.8h-4.8l-3.7-10.9H448.6z M460,103.4l-3.4-10
				c-0.8-2.3-1.3-4.3-1.8-6.3h-0.1c-0.5,2.1-1.1,4.2-1.8,6.3l-3.4,10.1H460z"/>
		</g>
	</g>
	<g>
		<path class="st1" d="M16.7,145.1c37.2-1.3,74.5-2,111.7-2.5c18.6-0.3,37.2-0.4,55.9-0.5l55.9-0.2l55.9,0.2
			c18.6,0.2,37.2,0.2,55.9,0.5c37.2,0.5,74.5,1.2,111.7,2.5c-37.2,1.3-74.5,2-111.7,2.5c-18.6,0.3-37.2,0.4-55.9,0.5l-55.9,0.2
			l-55.9-0.2c-18.6-0.2-37.2-0.2-55.9-0.5C91.2,147.1,54,146.4,16.7,145.1z"/>
	</g>
</g>
</svg>
