<?xml version="1.0" encoding="utf-8"?>
<!-- Generator: Adobe Illustrator 22.1.0, SVG Export Plug-In . SVG Version: 6.00 Build 0)  -->
<svg version="1.1" id="Camada_1" xmlns="http://www.w3.org/2000/svg" xmlns:xlink="http://www.w3.org/1999/xlink" x="0px" y="0px"
	 viewBox="0 0 400 400" style="enable-background:new 0 0 400 400;" xml:space="preserve">
<style type="text/css">
	.st0{fill:#FFFFFF;}
	.st1{fill-rule:evenodd;clip-rule:evenodd;fill:#FFFFFF;}
</style>
<path class="st0" d="M207.2,23.3c99.1,0,179.6,77.6,179.6,173.5c0,95.7-80.5,173.5-179.6,173.5c-99.3,0-179.7-77.8-179.7-173.5
	C27.5,100.9,107.9,23.3,207.2,23.3 M207.2,14.4c-104.2,0-188.9,81.8-188.9,182.4s84.8,182.4,188.9,182.4
	c104.1,0,188.8-81.8,188.8-182.4S311.3,14.4,207.2,14.4L207.2,14.4z"/>
<path class="st1" d="M98.4,267.4c17.1,1.1,33.7-1.4,49.2-8.2c7-3,13.4-6.6,19.8-11.5c-7.5-0.2-14.2-1.9-20.4-4.9
	c-10.5-5.2-18-13.3-22.5-24.3c-1-2.4-1-2.4,1.8-2.3c7.5,0.7,13.1,0.6,17.3-1.1c-4.1-1.4-8-2.1-11.1-4.1
	c-15.7-8.4-24.1-21.4-25.5-38.9c-0.2-2,0.4-2.3,2.3-1.4c5.5,3,11.6,4.2,18.5,4.9c-3-2.6-5.6-4.7-7.9-7
	c-13.1-13.6-16.2-35.1-7.5-51.7c1.2-2.3,1.6-2.3,3.2-0.5c22,24.5,49.4,39.3,82.4,44.4c3.4,0.6,7,0.6,10.5,1.4
	c2.3,0.3,2.6-0.7,2.3-2.4c-3.4-19.2,5.9-38.2,23.4-47.7c17.9-10.1,41.2-7,55.6,6.6c1.7,1.4,3.3,1.7,5.2,1.2
	c8.9-1.9,17.2-5.1,24.9-9.5c0.7-0.2,1.2-0.5,2-1.2c-3.4,10.8-10,18.8-19.9,25.2c9.1-0.8,17.3-3.5,25.5-6.4c0.2,1.1-0.7,1.7-1.2,2.6
	c-5.5,7.3-12,13.7-19.6,19.3c-1.4,1.1-1.8,1.9-1.8,3.6c0.6,33.5-10.5,63.2-32.6,89.1c-20.8,23.5-47.3,37.8-78.9,42.7
	c-33.5,5-65-0.3-93.9-17.6C99.1,267.6,98.7,267.4,98.4,267.4z"/>
</svg>
