<?xml version="1.0" encoding="utf-8"?>
<!-- Generator: Adobe Illustrator 22.1.0, SVG Export Plug-In . SVG Version: 6.00 Build 0)  -->
<svg version="1.1" id="Camada_1" xmlns="http://www.w3.org/2000/svg" xmlns:xlink="http://www.w3.org/1999/xlink" x="0px" y="0px"
	 viewBox="0 0 400 400" style="enable-background:new 0 0 400 400;" xml:space="preserve">
<style type="text/css">
	.st0{fill:#FFFFFF;}
	.st1{fill-rule:evenodd;clip-rule:evenodd;fill:#FFFFFF;}
</style>
<path class="st0" d="M203.1,19c100.5,0,182,78.6,182,175.7s-81.5,175.7-182,175.7c-100.5,0-181.9-78.6-181.9-175.7
	S102.7,19,203.1,19 M203.1,10C97.7,10,11.9,92.9,11.9,194.8c0,101.9,85.8,184.7,191.3,184.7c105.5,0,191.4-82.9,191.4-184.7
	C394.6,92.9,308.7,10,203.1,10L203.1,10z"/>
<path class="st1" d="M308.1,146.5c-12-48.6-55.5-81.8-107.9-82.5c-6.9,0.3-14.4,0.8-21.2,2c-73.5,14.3-111.3,92.6-75.8,155.7
	c1.3,1.8,1.3,3.4,1,5.3c-5.2,16.4-9.9,33.2-14.5,49.7c-0.8,2.9-0.8,2.9,2.1,2.1c17.9-4.8,35.7-9.2,53.6-13.4c1.6-0.5,2.7-0.5,4,0.2
	c23,11.3,47.2,14.5,72.7,9.9C282.8,264.3,322.6,204.5,308.1,146.5z M215.7,258.5c-5.3,0.9-10.3,1.4-12.8,1.1
	c-19.5,0-35.3-4.3-49.9-12.4c-2.1-1.2-3.6-1.6-5.6-0.8c-10,2.3-19.8,4.9-29.7,7.4c-2,0.6-2.2,0.2-1.8-1.7c2.6-8.8,5.1-17.9,8-27
	c0.6-2.5,0.5-4.4-1.1-6.3c-20.1-31.6-19.2-70.3,3.3-99.6c23.4-30.1,55.5-42.7,93.6-34.7c37.6,7.6,61.7,31.2,70.3,67.4
	C302,201.2,267.4,250.4,215.7,258.5z"/>
<path class="st1" d="M229.1,221.8c-3.9,0.4-7.8-0.3-11.5-1.4c-25.3-7.2-44.5-22.2-59.9-42.5c-5.7-7.5-11.2-15.6-12.8-25.2
	c-2.3-11.1,1.3-21,10-28.5c2.9-2.7,11.3-3.9,14.8-2.1c1.1,0.9,1.7,1.7,2.5,2.8c3.1,7.6,6.5,14.7,9.7,21.9c0.5,1.6,0.4,3-0.5,4.6
	c-1.7,3.4-4.3,6-6.8,8.8c-2.1,1.7-2.1,3.7-0.7,5.8c9.1,14.7,21.3,25.2,37.8,31.4c2.4,0.9,4.2,0.6,5.7-1.2c2.8-3.2,5.6-6.7,8.3-10.1
	c1.6-2,3.8-2.5,6.1-1.4c5.4,2.3,10.8,4.7,15.9,7c1.4,0.7,2.5,1.2,3.7,1.8c5.5,2.6,5.5,3,4.8,8.6c-0.7,11.1-9.6,16.8-19.7,19.6
	C233.7,222.2,231.5,222.2,229.1,221.8z"/>
</svg>
